<?xml version="1.0" encoding="UTF-8"?>
<svg xmlns="http://www.w3.org/2000/svg" xmlns:xlink="http://www.w3.org/1999/xlink" width="512" height="512" viewBox="0 0 61 60" version="1.1"><!-- Generator: Sketch 51.3 (57544) - http://www.bohemiancoding.com/sketch --><title>018 - Ideas growth</title><desc>Created with Sketch.</desc><defs/><g id="Page-1" stroke="none" stroke-width="1" fill="none" fill-rule="evenodd"><g id="018---Ideas-growth" transform="translate(-1.000000, -1.000000)" fill="#000000" fill-rule="nonzero"><path d="M57.679,53.311 C57.42,53.186 57.173,53.068 56.959,52.952 C55.559,52.189 54.113,51.4 52.721,50.585 C51.0608327,49.5447649 49.234252,48.7975581 47.321,48.376 C45.3463449,47.8269729 43.5252931,46.829005 42,45.46 L42,45.387 C42.107,45.287 42.2,45.187 42.31,45.087 C46.192,41.587 46.038,38.369 45.889,35.257 C45.88,35.077 45.879,34.888 45.871,34.707 C48.5522966,33.2798145 50.392977,30.6602991 50.827,27.654 C51.072,26.169 51.214,24.299 50.127,23.011 C49.3319022,22.1433018 48.1692439,21.7090245 47,21.843 C47,20.819 46.983,19.68 46.933,18.399 C46.922,18.099 46.912,17.787 46.894,17.53 C46.894,17.509 46.886,17.388 46.884,17.35 C46.882,17.312 46.866,17.283 46.862,17.25 C46.857354,17.1718352 46.8429076,17.0945637 46.819,17.02 C46.819,17.008 46.808,16.998 46.804,16.987 C46.8,16.976 46.791,16.961 46.785,16.948 C46.306,15.766 45.033,14.748 43.004,13.92 L43.004,12 L46.004,12 C46.3979748,12.0000617 46.7552697,11.7687947 46.916539,11.4093391 C47.0778083,11.0498835 47.0129932,10.6292374 46.751,10.335 L38.751,1.335 C38.3857592,0.922549234 37.755722,0.883199857 37.342,1.247 L34.149,4.038 L31.749,1.338 C31.5540915,1.13393982 31.2841876,1.01849842 31.002,1.01849842 C30.7198124,1.01849842 30.4499085,1.13393982 30.255,1.338 L27.855,4.038 L24.658,1.247 C24.2448444,0.88588356 23.6178676,0.925153281 23.253,1.335 L15.253,10.335 C14.9910068,10.6292374 14.9261917,11.0498835 15.087461,11.4093391 C15.2487303,11.7687947 15.6060252,12.0000617 16,12 L19,12 L19,13.918 C16.93,14.765 15.641,15.804 15.185,17.018 C15.1478361,17.1206872 15.1279008,17.2288111 15.126,17.338 C15.126,17.346 15.12,17.353 15.119,17.361 C15.118,17.369 15.113,17.461 15.112,17.466 C15.092,17.787 15.082,18.098 15.071,18.42 C15.021,19.692 15.001,20.82 15.004,21.843 C13.8351535,21.7081921 12.6723808,22.1408863 11.876,23.007 C10.786,24.295 10.928,26.165 11.176,27.65 C11.610271,30.6545952 13.4496322,33.2727048 16.129,34.7 C16.121,34.881 16.12,35.07 16.111,35.25 C15.962,38.362 15.811,41.58 19.691,45.08 C19.804,45.18 19.891,45.28 20,45.38 L20,45.5 C18.4842019,46.850419 16.6779024,47.8338069 14.721,48.374 C12.80871,48.7926236 10.983612,49.5400544 9.327,50.583 C7.927,51.397 6.48,52.183 5.081,52.95 C4.868,53.066 4.623,53.184 4.364,53.308 C3.18138349,53.740933 2.15112776,54.5101489 1.4,55.521 C1.0622966,56.1944053 0.927500784,56.9514159 1.012,57.7 C1.017,57.85 1.021,58 1.02,58.164 L1.02,60 C1.02,60.5522847 1.46771525,61 2.02,61 L60.02,61 C60.5722847,61 61.02,60.5522847 61.02,60 L61.02,58.16 C61.02,58.021 61.02,57.88 61.031,57.74 C61.1257999,56.9801309 60.9895497,56.2093245 60.64,55.528 C59.8934566,54.5129425 58.8631873,53.7415454 57.679,53.311 Z M34,59 L28,59 C22.2,59 22,53.576 22,52.96 L22,47.646 C22.371,48.141 22.715,48.627 23.029,49.085 C24.473,51.186 25.719,53 28.87,53 L33.13,53 C36.281,53 37.53,51.186 38.971,49.085 C39.285,48.627 39.629,48.141 40,47.646 L40,52.96 C40,53.207 39.932,59 34,59 Z M48.6,24.3 C49.167,24.971 49.019,26.348 48.857,27.326 C48.558794,29.3320224 47.4909888,31.1430229 45.88,32.375 C45.956105,31.6025885 46.0736073,30.8348179 46.232,30.075 C46.6477631,28.0229591 46.8906149,25.9396514 46.958,23.847 C47.5461861,23.7294785 48.1552747,23.8975157 48.6,24.3 Z M19,16.11 L19,17 C19,17.5522847 19.4477153,18 20,18 C20.5522847,18 21,17.5522847 21,17 L21,11 C21,10.4477153 20.5522847,10 20,10 L18.227,10 L24.089,3.406 L26.522,5.533 L22.253,10.333 C21.9896776,10.627137 21.9240508,11.0486647 22.0854903,11.408932 C22.2469299,11.7691994 22.6052156,12.0007675 23,12 L26,12 L26,19 C26,19.5522847 26.4477153,20 27,20 C27.5522847,20 28,19.5522847 28,19 L28,11 C28,10.4477153 27.5522847,10 27,10 L25.227,10 L31,3.505 L36.773,10 L35,10 C34.4477153,10 34,10.4477153 34,11 L34,19 C34,19.5522847 34.4477153,20 35,20 C35.5522847,20 36,19.5522847 36,19 L36,12 L39,12 C39.126238,11.9987833 39.251104,11.9736744 39.368,11.926 C39.4164781,11.9017132 39.4629567,11.8736254 39.507,11.842 C39.5624108,11.8161192 39.6150196,11.7846209 39.664,11.748 C39.672,11.741 39.674,11.731 39.681,11.725 C39.7329779,11.6703221 39.7786015,11.6099379 39.817,11.545 C39.8507358,11.5018203 39.8814744,11.4563807 39.909,11.409 C39.9276823,11.3546167 39.9417324,11.298751 39.951,11.242 C39.9731688,11.1728093 39.9875904,11.1013721 39.994,11.029 C39.994,11.019 40,11.01 40,11 C39.9938062,10.9510365 39.9841148,10.9025793 39.971,10.855 C39.9655036,10.7084431 39.9117129,10.5678141 39.818,10.455 C39.7974145,10.4126166 39.7736814,10.3718358 39.747,10.333 L35.478,5.533 L37.911,3.406 L43.773,10 L42,10 C41.4477153,10 41,10.4477153 41,11 L41,17 C41,17.5522847 41.4477153,18 42,18 C42.5522847,18 43,17.5522847 43,17 L43,16.11 C43.7662442,16.4149004 44.4249681,16.9400004 44.893,17.619 C44.907,17.845 44.914,18.071 44.922,18.303 C44.3,19.886 39.244,22 31,22 C22.756,22 17.7,19.887 17.076,18.3 C17.083,18.091 17.092,17.871 17.107,17.62 C17.574039,16.9398415 18.2330437,16.4141695 19,16.11 Z M13.146,27.325 C12.984,26.347 12.836,24.97 13.402,24.3 C13.847058,23.8974164 14.4566475,23.7297143 15.045,23.848 C15.1120748,25.9406744 15.3549297,28.0240081 15.771,30.076 C15.9293927,30.8358179 16.046895,31.6035885 16.123,32.376 C14.5115668,31.143545 13.4437137,29.3317458 13.146,27.325 Z M18.108,35.349 C18.14,34.712 18.17,34.064 18.17,33.4 C18.152438,32.1550015 18.0066686,30.9151238 17.735,29.7 C17.2812002,27.4658386 17.0404542,25.193652 17.016,22.914 C17.0180098,22.8830326 17.0180098,22.8519674 17.016,22.821 C17.006,22.2756667 17.0036667,21.6883333 17.009,21.059 C19.98,23.066 25.769,24 31,24 C36.231,24 42.021,23.066 44.994,21.061 C44.9993333,21.689 44.997,22.2756667 44.987,22.821 C44.985002,22.8563051 44.985002,22.8916949 44.987,22.927 C44.9618869,25.2029754 44.7211441,27.4714496 44.268,29.702 C43.9963314,30.9171238 43.850562,32.1570015 43.833,33.402 C43.833,34.066 43.863,34.714 43.895,35.351 C44.038,38.358 44.152,40.734 40.974,43.598 C39.5806267,44.8926552 38.354464,46.356324 37.324,47.955 C35.972,49.917 35.229,51 33.13,51 L28.87,51 C26.77,51 26.028,49.917 24.679,47.953 C23.6486265,46.355749 22.4228072,44.8934328 21.03,43.6 C17.851,40.732 17.965,38.356 18.108,35.349 Z M3.02,59 L3.02,58.175 C3.02,57.995 3.02,57.813 3.011,57.633 C2.95722138,57.2570793 3.00024493,56.8736534 3.136,56.519 C3.70931809,55.8868341 4.42805219,55.4039025 5.23,55.112 C5.521,54.972 5.797,54.839 6.038,54.712 C7.45,53.942 8.909,53.146 10.338,52.318 C11.7972295,51.3947015 13.4037743,50.72807 15.088,50.347 C16.8684092,49.9245129 18.54128,49.1357571 20,48.031 L20,52.96 C20.0112149,55.2228328 20.9087068,57.3911732 22.5,59 L3.02,59 Z M59.032,57.66 C59.026,57.827 59.02,57.994 59.02,58.16 L59.02,59 L39.5,59 C41.0912932,57.3911732 41.9887851,55.2228328 42,52.96 L42,48 C43.4712052,49.1198377 45.1609038,49.9186972 46.96,50.345 C48.644809,50.7281348 50.2525494,51.3938847 51.715,52.314 C53.129,53.142 54.59,53.939 56.002,54.709 C56.244,54.841 56.521,54.975 56.814,55.115 C57.6191494,55.405086 58.3392199,55.8914343 58.909,56.53 C59.0525449,56.8883361 59.0950872,57.2791721 59.032,57.66 Z" id="Shape"/></g></g></svg>
