<?xml version="1.0"?>
<svg xmlns="http://www.w3.org/2000/svg" width="512" height="512" viewBox="0 0 128 128"><path d="M114.463,108.28,84.51,90.59V76H98.5a12.869,12.869,0,0,0,8.3-22.709l-7.47-6.3h0L88.244,37.661a17.37,17.37,0,0,0-10.551-4.053,13.3,13.3,0,0,0,4.1-9.566v-5.83a18.506,18.506,0,0,0-5.534-13.12A17.388,17.388,0,0,0,63.661,0,17.878,17.878,0,0,0,46.208,17.792v6.25a13.3,13.3,0,0,0,4.1,9.566,17.37,17.37,0,0,0-10.551,4.053L28.678,46.992h0l-7.47,6.3A12.869,12.869,0,0,0,29.5,76H43.49V90.59L13.537,108.28A10.355,10.355,0,0,0,17.956,128h92.088a10.355,10.355,0,0,0,4.419-19.72Zm-6.595-45.15A9.38,9.38,0,0,1,98.5,72.5H65.75V57.005a5.258,5.258,0,0,1,3.5,4.95v.3A1.751,1.751,0,0,0,71,64H96.089a1.75,1.75,0,0,0,1.128-3.088L91.864,56.4l5.46-4.926.91-.821,6.3,5.314A9.354,9.354,0,0,1,107.868,63.13ZM88.074,57.782,91.3,60.5H84.51V54.777ZM49.708,24.042v-6.25A14.362,14.362,0,0,1,63.726,3.5,13.925,13.925,0,0,1,73.807,7.59a14.984,14.984,0,0,1,4.485,10.622v5.83a9.825,9.825,0,0,1-7.763,9.576,1.75,1.75,0,0,0,.36,3.462h2.283C72.093,40,68.4,42.16,64,42.16S55.907,40,54.828,37.08h2.283a1.75,1.75,0,0,0,.36-3.462A9.825,9.825,0,0,1,49.708,24.042Zm-7.7,16.3a13.875,13.875,0,0,1,8.924-3.257h.251c1.05,4.865,6.4,8.58,12.814,8.58s11.764-3.715,12.814-8.58h.251a13.875,13.875,0,0,1,8.924,3.257l9.543,8.039-5.589,5.042-.78.7-5.275-4.447a1.75,1.75,0,0,0-2.878,1.338V60.5H72.629a8.751,8.751,0,0,0-17.258,0H46.99V51.013a1.75,1.75,0,0,0-2.878-1.338l-5.275,4.447-.78-.7-5.589-5.042ZM36.7,60.5l3.224-2.718,3.564-3V60.5Zm-16.57,2.63a9.354,9.354,0,0,1,3.33-7.164l6.3-5.314.91.821,5.46,4.926-5.353,4.513A1.75,1.75,0,0,0,31.911,64H57a1.751,1.751,0,0,0,1.75-1.75v-.3a5.258,5.258,0,0,1,3.5-4.95V72.5H29.5A9.38,9.38,0,0,1,20.132,63.13ZM64,76H81.01V89.839H46.99V76Zm15.047,48.5v-8.572l10.79-3.233a1.875,1.875,0,0,1,2.413,1.8v8.134a1.877,1.877,0,0,1-1.875,1.875Zm31,0H95.394a5.314,5.314,0,0,0,.356-1.875v-8.134a5.375,5.375,0,0,0-6.918-5.149l-11.668,3.5-39.225-5.65a1.749,1.749,0,1,0-.5,3.463l38.107,5.49V124.5H17.956a6.855,6.855,0,0,1-2.87-13.081,1.7,1.7,0,0,0,.158-.083l30.474-18H82.282l30.474,18a1.7,1.7,0,0,0,.158.083,6.855,6.855,0,0,1-2.87,13.081Z"/></svg>
