<svg id="Expand" enable-background="new 0 0 96 96" height="512" viewBox="0 0 96 96" width="512" xmlns="http://www.w3.org/2000/svg"><path d="m11 14h8v2c0 .379.214.725.553.895.141.07.295.105.447.105.212 0 .424-.067.6-.2l8-6c.252-.188.4-.485.4-.8s-.148-.611-.4-.8l-8-6c-.303-.229-.709-.264-1.047-.095-.339.17-.553.516-.553.895v2h-8c-.553 0-1 .447-1 1v6c0 .553.447 1 1 1zm1-6h8c.553 0 1-.447 1-1v-1l5.333 4-5.333 4v-1c0-.553-.447-1-1-1h-8z"/><path d="m93 2h-64c-.553 0-1 .447-1 1v3c0 .553.447 1 1 1s1-.447 1-1v-2h7v5c0 .553.447 1 1 1h20v8c0 .553.447 1 1 1s1-.447 1-1v-9c0-.553-.447-1-1-1h-20v-4h30v9h-5c-.553 0-1 .447-1 1s.447 1 1 1h6c.553 0 1-.447 1-1v-10h21v48h-3c-.553 0-1 .447-1 1s.447 1 1 1h3v5h-34v-19h19c.553 0 1-.447 1-1v-15c0-.553-.447-1-1-1s-1 .447-1 1v14h-22c-.553 0-1 .447-1 1s.447 1 1 1h2v20c0 .553.447 1 1 1h35v5h-2c-.553 0-1 .447-1 1s.447 1 1 1h3c.553 0 1-.447 1-1v-64c0-.553-.447-1-1-1z"/><path d="m80 67c0-.553-.447-1-1-1h-28v-22c0-.553-.447-1-1-1h-6v-2c0-.553-.447-1-1-1s-1 .447-1 1v3c0 .553.447 1 1 1h6v21h-5v-16c0-.553-.447-1-1-1s-1 .447-1 1v10h-8c-.553 0-1 .447-1 1s.447 1 1 1h8v4h-12v-10h7c.553 0 1-.447 1-1s-.447-1-1-1h-7v-4h6c.553 0 1-.447 1-1v-25h9c.553 0 1-.447 1-1s-.447-1-1-1h-10c-.553 0-1 .447-1 1v25h-5v-31h21v10c0 .553.447 1 1 1s1-.447 1-1v-3h15v7h-24v-2c0-.553-.447-1-1-1s-1 .447-1 1v6c0 .553.447 1 1 1s1-.447 1-1v-2h25c.553 0 1-.447 1-1v-9c0-.553-.447-1-1-1h-16v-6c0-.553-.447-1-1-1h-22v-1c0-.553-.447-1-1-1s-1 .447-1 1v37h-10v-10h3c.553 0 1-.447 1-1v-8c0-2.757-2.243-5-5-5h-.54c.954-1.063 1.54-2.462 1.54-4 0-3.309-2.691-6-6-6s-6 2.691-6 6c0 1.538.586 2.937 1.54 4h-.54c-2.757 0-5 2.243-5 5v8c0 .553.447 1 1 1h3v10h-3c-.553 0-1 .447-1 1s.447 1 1 1h25v14c0 .553.447 1 1 1h50c.553 0 1-.447 1-1zm-72-44c0-2.206 1.794-4 4-4s4 1.794 4 4-1.794 4-4 4-4-1.794-4-4zm-1 9c-.553 0-1 .447-1 1v6h-2v-7c0-1.654 1.346-3 3-3h10c1.654 0 3 1.346 3 3v7h-2v-6c0-.553-.447-1-1-1s-1 .447-1 1v18h-3v-10c0-.553-.447-1-1-1s-1 .447-1 1v10h-3v-18c0-.553-.447-1-1-1z"/><path d="m87 79.586v-3.562c0-.016 0-.031 0-.047v-7.977c0-.326-.159-.632-.427-.819-.267-.187-.608-.233-.915-.12l-11 4c-.395.143-.658.518-.658.939s.263.796.658.939l10.342 3.761v2.886l-7 7-3.293-3.293c-.391-.391-1.023-.391-1.414 0l-8.707 8.707h-3.586c-.553 0-1 .447-1 1s.447 1 1 1h32c.553 0 1-.447 1-1v-6c0-.266-.105-.52-.293-.707zm-9.074-7.586 7.074-2.572v5.145zm14.074 20h-24.586l6.586-6.586 3.293 3.293 1 1c.195.195.451.293.707.293s.512-.098.707-.293c.391-.391.391-1.023 0-1.414l-.293-.293 6.586-6.586 6 6z"/><path d="m7 14c.553 0 1-.447 1-1v-6c0-.553-.447-1-1-1s-1 .447-1 1v6c0 .553.447 1 1 1z"/><path d="m3 14c.553 0 1-.447 1-1v-6c0-.553-.447-1-1-1s-1 .447-1 1v6c0 .553.447 1 1 1z"/><path d="m84 47c.553 0 1-.447 1-1v-35c0-.553-.447-1-1-1h-7c-.553 0-1 .447-1 1v7c0 .553.447 1 1 1s1-.447 1-1v-6h5v33h-18c-.553 0-1 .447-1 1v7c0 .553.447 1 1 1s1-.447 1-1v-6h5v6c0 .553.447 1 1 1h11c.553 0 1-.447 1-1s-.447-1-1-1h-10v-5z"/><circle cx="21" cy="48" r="1"/><circle cx="25" cy="48" r="1"/><circle cx="25" cy="44" r="1"/><circle cx="57" cy="93" r="1"/><circle cx="53" cy="93" r="1"/><circle cx="49" cy="93" r="1"/></svg>